<svg width="16" height="16" viewBox="0 0 16 16" fill="none" xmlns="http://www.w3.org/2000/svg">
<path fill-rule="evenodd" clip-rule="evenodd" d="M3.81315 3.30789L1.50695 7.10798C1.24655 7.53706 1.08251 8.01579 1.02406 8.5111C1.00827 8.58108 1 8.65389 1 8.72846V8.92046V11.0835C1 11.5366 1.30466 11.9331 1.74249 12.0498L5.14636 12.9569C5.90845 13.16 6.69765 12.7382 6.95229 11.9917L7.33857 10.8594C7.43511 10.5764 7.70099 10.3862 8 10.3862C8.29901 10.3862 8.56489 10.5764 8.66143 10.8594L9.04771 11.9917C9.30235 12.7382 10.0915 13.16 10.8536 12.9569L14.2575 12.0498C14.6953 11.9331 15 11.5366 15 11.0835V8.92046V8.72846C15 8.65389 14.9917 8.58108 14.9759 8.51111C14.9175 8.01579 14.7534 7.53706 14.493 7.10798L12.1869 3.30789C12.0708 3.11673 11.8635 3 11.6399 3C11.2865 3 11 3.28647 11 3.63985V5.43142C11 5.70756 11.2239 5.93142 11.5 5.93142C11.7761 5.93142 12 5.70756 12 5.43142V5L12.7691 7.63937C11.6545 7.54006 10.0891 7.45477 8 7.45477C5.91091 7.45477 4.34553 7.54006 3.23093 7.63937L4 5V5.43142C4 5.70756 4.22386 5.93142 4.5 5.93142C4.77614 5.93142 5 5.70756 5 5.43142V3.63985C5 3.28647 4.71353 3 4.36015 3C4.13654 3 3.92916 3.11673 3.81315 3.30789ZM3 9.33226C3 9.09309 3.1692 8.88821 3.40576 8.85304C4.07004 8.75428 5.4242 8.6023 6.50844 8.79903C6.78282 8.84881 6.92635 9.13642 6.83631 9.40035L6.13646 11.4519C6.05767 11.6829 5.82369 11.8232 5.58285 11.784L3.83925 11.5C3.35539 11.4212 3 11.0032 3 10.513V9.33226ZM12.5942 8.85304C12.8308 8.88821 13 9.09309 13 9.33226V10.513C13 11.0032 12.6446 11.4212 12.1608 11.5L10.4171 11.784C10.1763 11.8232 9.94233 11.6829 9.86354 11.4519L9.16369 9.40035C9.07366 9.13642 9.21719 8.84881 9.49156 8.79903C10.5758 8.6023 11.93 8.75428 12.5942 8.85304Z" fill="#C3D2DF"/>
</svg>
